<svg id="SVGRoot" width="256px" height="256px" version="1.1" viewBox="0 0 256 256" xmlns="http://www.w3.org/2000/svg"><path d="m10.167 9.1662c-4.1672 4.1662-4.1672 12.5-4.1672 49.17v138.33c0 36.667 0 45 4.1677 49.167 4.1677 4.1672 12.5 4.1672 49.163 4.1672h138.34c36.667 0 45 0 49.166-4.1667 4.1662-4.1667 4.1662-12.501 4.1662-49.205v-138.13c0-36.5 0-45.167-4.1657-49.333-4.1657-4.1662-12.5-4.1662-49.171-4.1662h-138.33c-36.667 0-45 0-49.167 4.1662z" fill="#fafafa" stroke="#969696" stroke-width="2"/><g><g transform="matrix(1.6116 0 0 1.6116 -10.37 3.9192)" stroke-width="1px" aria-label="CorgiDS"><path d="m28.36 87.4q-2.92 0-5.32-0.96t-4.12-2.8-2.68-4.52q-0.92-2.72-0.92-6.2t1.04-6.16q1.08-2.72 2.88-4.56t4.2-2.8 5.12-0.96q1.72 0 3.08 0.24 1.4 0.24 2.4 0.56 1.04 0.32 1.68 0.64t0.88 0.48l-1.12 3.2q-0.36-0.24-1.04-0.52t-1.56-0.56q-0.84-0.28-1.88-0.44-1-0.2-2.04-0.2-2.2 0-3.96 0.76t-3 2.2-1.92 3.52q-0.64 2.04-0.64 4.6 0 2.48 0.56 4.52 0.6 2.04 1.76 3.52 1.16 1.44 2.88 2.24 1.76 0.8 4.08 0.8 2.68 0 4.44-0.56t2.64-1l1 3.2q-0.28 0.2-1 0.52-0.72 0.28-1.8 0.56t-2.52 0.48-3.12 0.2z"/><path d="m58.701 76.4q0 2.48-0.72 4.48t-2.04 3.44q-1.28 1.44-3.08 2.24-1.8 0.76-3.92 0.76t-3.92-0.76q-1.8-0.8-3.12-2.24-1.28-1.44-2-3.44t-0.72-4.48q0-2.44 0.72-4.44 0.72-2.04 2-3.48 1.32-1.44 3.12-2.2 1.8-0.8 3.92-0.8t3.92 0.8q1.8 0.76 3.08 2.2 1.32 1.44 2.04 3.48 0.72 2 0.72 4.44zm-3.88 0q0-3.52-1.6-5.56-1.56-2.08-4.28-2.08t-4.32 2.08q-1.56 2.04-1.56 5.56t1.56 5.6q1.6 2.04 4.32 2.04t4.28-2.04q1.6-2.08 1.6-5.6z"/><path d="m71.614 65.56q0.48 0 1.08 0.08 0.64 0.04 1.24 0.16 0.6 0.08 1.08 0.2 0.52 0.08 0.76 0.16l-0.64 3.24q-0.44-0.16-1.48-0.36-1-0.24-2.6-0.24-1.04 0-2.08 0.24-1 0.2-1.32 0.28v17.48h-3.72v-19.92q1.32-0.48 3.28-0.88 1.96-0.44 4.4-0.44z"/><path d="m92.443 84.72q-0.48 0.32-1.88 0.84-1.36 0.48-3.2 0.48-1.88 0-3.56-0.6-1.64-0.6-2.88-1.84-1.24-1.28-1.96-3.16t-0.72-4.48q0-2.28 0.68-4.16 0.68-1.92 1.96-3.28 1.32-1.4 3.2-2.16 1.88-0.8 4.24-0.8 2.6 0 4.52 0.4 1.96 0.36 3.28 0.68v18.56q0 4.8-2.48 6.96t-7.52 2.16q-1.96 0-3.72-0.32-1.72-0.32-3-0.76l0.68-3.24q1.12 0.44 2.72 0.76 1.64 0.36 3.4 0.36 3.32 0 4.76-1.32 1.48-1.32 1.48-4.2zm-0.04-15.44q-0.56-0.16-1.52-0.28-0.92-0.16-2.52-0.16-3 0-4.64 1.96-1.6 1.96-1.6 5.2 0 1.8 0.44 3.08 0.48 1.28 1.24 2.12 0.8 0.84 1.8 1.24 1.04 0.4 2.12 0.4 1.48 0 2.72-0.4 1.24-0.44 1.96-1z"/><path d="m106.25 86.8h-3.72v-20.8h3.72zm-1.88-24.56q-1 0-1.72-0.64-0.67999-0.68-0.67999-1.8t0.67999-1.76q0.72001-0.68 1.72-0.68t1.68 0.68q0.71999 0.64 0.71999 1.76t-0.71999 1.8q-0.68 0.64-1.68 0.64z"/><path d="m135.68 72.92q0 3.6-1.12 6.28-1.12 2.64-3.16 4.4-2.04 1.72-4.88 2.6-2.84 0.84-6.24 0.84-1.68 0-3.72-0.16-2-0.12-3.64-0.52v-26.88q1.64-0.4 3.64-0.52 2.04-0.16 3.72-0.16 3.4 0 6.24 0.88 2.84 0.84 4.88 2.6 2.04 1.72 3.16 4.4 1.12 2.64 1.12 6.24zm-15.08 10.72q5.52 0 8.24-2.8 2.72-2.84 2.72-7.92t-2.72-7.88q-2.72-2.84-8.24-2.84-1.64 0-2.56 0.04-0.88 0.04-1.24 0.08v21.2q0.36001 0.04 1.24 0.08 0.92 0.04 2.56 0.04z"/><path d="m147.41 84.04q6.08 0 6.08-4.16 0-1.28-0.56-2.16-0.52-0.92-1.44-1.56-0.92-0.68-2.12-1.16-1.16-0.48-2.48-0.96-1.52-0.52-2.88-1.16-1.36-0.68-2.36-1.56-1-0.92-1.6-2.16-0.56-1.24-0.56-3 0-3.64 2.48-5.68t6.84-2.04q2.52 0 4.56 0.56 2.08 0.52 3.04 1.16l-1.24 3.16q-0.84-0.52-2.52-1-1.64-0.52-3.84-0.52-1.12 0-2.08 0.24t-1.68 0.72-1.16 1.24q-0.4 0.72-0.4 1.72 0 1.12 0.44 1.88t1.24 1.36q0.8 0.56 1.84 1.04 1.08 0.48 2.36 0.96 1.8 0.72 3.28 1.44 1.52 0.72 2.6 1.72 1.12 1 1.72 2.4 0.6 1.36 0.6 3.32 0 3.64-2.68 5.6-2.64 1.96-7.48 1.96-1.64 0-3.04-0.24-1.36-0.2-2.44-0.48-1.08-0.32-1.88-0.64-0.76-0.36-1.2-0.6l1.16-3.2q0.92 0.52 2.8 1.16t4.6 0.64z"/></g></g></svg>
